<?xml version="1.0" encoding="UTF-8" standalone="no"?>
<!-- Created with Inkscape (http://www.inkscape.org/) -->

<svg
   id="svg3418"
   sodipodi:docname="cardinality-indicator.svg"
   viewBox="0 0 587.11 517.39"
   version="1.1"
   inkscape:version="1.1.2 (0a00cf5339, 2022-02-04)"
   xmlns:inkscape="http://www.inkscape.org/namespaces/inkscape"
   xmlns:sodipodi="http://sodipodi.sourceforge.net/DTD/sodipodi-0.dtd"
   xmlns="http://www.w3.org/2000/svg"
   xmlns:svg="http://www.w3.org/2000/svg"
   xmlns:rdf="http://www.w3.org/1999/02/22-rdf-syntax-ns#"
   xmlns:cc="http://creativecommons.org/ns#"
   xmlns:dc="http://purl.org/dc/elements/1.1/">
  <defs
     id="defs15" />
  <sodipodi:namedview
     id="base"
     bordercolor="#666666"
     inkscape:pageshadow="2"
     inkscape:window-y="0"
     fit-margin-left="0"
     pagecolor="#ffffff"
     fit-margin-top="0"
     inkscape:window-maximized="0"
     inkscape:zoom="0.9899495"
     inkscape:window-x="302"
     inkscape:window-height="952"
     showgrid="false"
     borderopacity="1.0"
     inkscape:current-layer="layer1"
     inkscape:cx="454.06357"
     inkscape:cy="186.37314"
     fit-margin-right="0"
     fit-margin-bottom="0"
     inkscape:window-width="970"
     inkscape:pageopacity="0.0"
     inkscape:document-units="px"
     inkscape:pagecheckerboard="0"
     inkscape:snap-nodes="true" />
  <g
     id="layer1"
     inkscape:label="Calque 1"
     inkscape:groupmode="layer"
     transform="translate(285.04 -688.57)">
    <g
       id="g2604"
       inkscape:export-ydpi="14.610658"
       inkscape:export-xdpi="14.610658"
       inkscape:export-filename="/home/yves/Bureau/openclipart/advertising.png"
       transform="matrix(.82302 0 0 .82302 -294.44 635)">
      <g
         id="g2606"
         inkscape:label="Layer 1">
        <g
           id="g2608">
          <path
             id="path2610"
             style="stroke:#000000;stroke-linecap:round;stroke-width:12.5;fill:none"
             sodipodi:type="inkscape:offset"
             d="m291.34-65.688c-10.868 0.53434-20.712 6.5473-26.156 15.969l-405.62 702.62c-5.7255 9.9109-5.7205 22.117 0 32.031 5.7205 9.9143 16.273 16.028 27.719 16.031l807.88 0.15625c11.419-0.006 21.96-6.09 27.688-15.969 5.7273-9.8788 5.7621-22.056 0.0937-31.969l-402.25-702.77c-5.98-10.462-17.31-16.681-29.35-16.098z"
             inkscape:original="M 291.31250 -66.250000 C 280.25379 -65.706287 270.22703 -59.586667 264.68750 -50.000000 C 129.47917 184.20833 -5.7291671 418.41667 -140.93750 652.62500 C -146.76339 662.70968 -146.75810 675.13101 -140.93750 685.21875 C -135.11691 695.30650 -124.36529 701.52810 -112.71875 701.53125 C 156.57292 701.58333 425.86458 701.63542 695.15625 701.68750 C 706.77537 701.68103 717.51606 695.48946 723.34375 685.43750 C 729.17146 675.38555 729.20513 662.99280 723.43750 652.90625 C 589.35417 418.64583 455.27083 184.38542 321.18750 -49.875000 C 315.10044 -60.516625 303.55768 -66.843410 291.31250 -66.250000 z "
             transform="matrix(.80662 0 0 .80662 133.19 123.15)"
             inkscape:radius="-0.56398124" />
          <path
             id="path2612"
             style="stroke-linejoin:round;fill-rule:evenodd;stroke:#000000;stroke-linecap:round;stroke-width:29.444;fill:#ffcc00"
             sodipodi:type="inkscape:offset"
             d="m292.91-32.375-404.5 700.66 805.62 0.15625c-133.71-233.61-267.41-467.2-401.12-700.82z"
             inkscape:original="M 292.84375 -34.406250 C 292.55766 -34.384962 292.41873 -34.300416 292.28125 -34.062500 C 157.07292 200.14583 21.864583 434.35417 -113.34375 668.56250 C -113.50493 668.84151 -113.51690 668.98116 -113.34375 669.28125 C -113.16085 669.59824 -113.03490 669.65616 -112.71875 669.65625 C 156.57292 669.70833 425.86458 669.76042 695.15625 669.81250 C 695.49264 669.81231 695.57989 669.76217 695.75000 669.46875 C 695.91472 669.18463 695.92457 668.96940 695.78125 668.71875 C 561.69842 434.45921 427.61508 200.23005 293.53125 -34.031250 C 293.36499 -34.321919 293.19028 -34.413549 292.87500 -34.406250 C 292.86355 -34.405985 292.85557 -34.406809 292.84375 -34.406250 z "
             transform="matrix(.80662 0 0 .80662 133.19 123.15)"
             inkscape:radius="-1.3749481" />
        </g>
      </g>
      <g
         id="g4359"
         transform="matrix(.92570 0 0 .92570 -555.54 27.814)">
        <path
           id="path3656"
           style="stroke-width:0pt;fill:#030303"
           transform="matrix(1.6154 0 0 1.6154 -666.03 -406.83)"
           d="m1062.4 615.76c0 16.024-12.99 29.014-29.014 29.014s-29.014-12.99-29.014-29.014 12.99-29.014 29.014-29.014 29.014 12.99 29.014 29.014z"
           sodipodi:type="arc"
           sodipodi:ry="29.013807"
           sodipodi:rx="29.013807"
           sodipodi:cy="615.76416"
           sodipodi:cx="1033.3379" />
        <path
           id="path4355"
           d="m998.03 214.59c-26.41 0.4-47.52 22.12-47.15 48.53l7.5 200.88c0.64425 17.255 3.827 30.825 18.74 39.529s28.357 8.704 43.27 0 18.096-22.274 18.74-39.529l7.5-200.88c0.1775-12.936-4.8872-25.393-14.041-34.535-9.1537-9.1419-21.617-14.191-34.553-13.996z"
           style="fill-rule:evenodd;fill:#000000"
           inkscape:connector-curvature="0"
           sodipodi:nodetypes="cczcczcccc" />
      </g>
    </g>
    <g
       id="g39"
       transform="matrix(4.2731293,0,0,7.5277688,28.401445,688.5838)">
      <path
         fill="#f9ebb2"
         d="M 3.001,61.999 C 2.448,61.999 2,61.553 2.001,61 L 2.002,47.859 16.143,62 Z"
         id="path17" />
      <path
         fill="#f76d57"
         d="M 61.414,16.729 57.155,20.988 43.013,6.845 47.271,2.588 C 48.053,1.806 49.32,1.806 50.1,2.586 L 61.414,13.9 c 0.781,0.782 0.78,2.047 0,2.829 z"
         id="path19" />
      <g
         id="g23">
        <rect
           x="37.256001"
           y="14.744"
           transform="matrix(0.7071,0.7071,-0.7071,0.7071,25.6812,-28.5106)"
           fill="#f9ebb2"
           width="20.000999"
           height="4"
           id="rect21" />
      </g>
      <g
         id="g31">
        <rect
           x="-1.848"
           y="28.74"
           transform="matrix(0.7071,-0.7071,0.7071,0.7071,-15.6016,24.8148)"
           fill="#45aab8"
           width="48.001999"
           height="5.0009999"
           id="rect25" />
        <rect
           x="8.7600002"
           y="39.348"
           transform="matrix(0.7071,-0.7071,0.7071,0.7071,-19.9956,35.4215)"
           fill="#45aab8"
           width="48"
           height="4.9990001"
           id="rect27" />
        <rect
           x="3.4560001"
           y="33.543999"
           transform="matrix(0.7071,-0.7071,0.7071,0.7071,-17.7985,30.1183)"
           fill="#45aab8"
           width="48.000999"
           height="5.9990001"
           id="rect29" />
      </g>
      <rect
         x="-1.847"
         y="28.74"
         transform="matrix(-0.7071,0.7071,-0.7071,-0.7071,59.9084,37.6651)"
         opacity="0.2"
         fill="#231f20"
         width="48.000999"
         height="5"
         id="rect33" />
      <rect
         x="30.26"
         y="17.847"
         transform="matrix(0.7071,0.7071,-0.7071,0.7071,39.1859,-10.9078)"
         opacity="0.2"
         fill="#231f20"
         width="4.9990001"
         height="48"
         id="rect35" />
      <path
         fill="#394240"
         d="M 62.828,12.486 51.514,1.172 c -1.562,-1.562 -4.093,-1.562 -5.657,0.001 0,0 -44.646,44.646 -45.255,45.255 C -0.006,47.035 0,48 0,48 l 0.001,13.999 c 0,1.105 0.896,2 1.999,2.001 h 14 c 0,0 0.963,0.008 1.572,-0.602 0.609,-0.61 45.256,-45.257 45.256,-45.257 1.564,-1.562 1.564,-4.091 0,-5.655 z M 2.001,61 v -1.583 l 2.582,2.582 H 3.001 C 2.448,61.999 2,61.553 2.001,61 Z M 7.411,62 2.001,56.59 2.002,47.86 16.143,62 Z M 52.912,25.23 38.771,11.088 l -1.414,1.414 3.535,3.535 -33.941,33.942 1.414,1.414 33.94,-33.941 4.243,4.243 -33.941,33.94 1.414,1.415 33.941,-33.94 3.535,3.535 L 17.557,60.586 3.414,46.443 41.599,8.259 55.742,22.402 Z M 61.414,16.729 57.155,20.988 43.013,6.845 47.271,2.588 C 48.053,1.806 49.32,1.806 50.1,2.586 L 61.414,13.9 c 0.781,0.782 0.78,2.047 0,2.829 z"
         id="path37" />
    </g>
  </g>
  <metadata
     id="metadata12">
    <rdf:RDF>
      <cc:Work>
        <dc:format>image/svg+xml</dc:format>
        <dc:type
           rdf:resource="http://purl.org/dc/dcmitype/StillImage" />
        <cc:license
           rdf:resource="http://creativecommons.org/licenses/publicdomain/" />
        <dc:publisher>
          <cc:Agent
             rdf:about="http://openclipart.org/">
            <dc:title>Openclipart</dc:title>
          </cc:Agent>
        </dc:publisher>
        <dc:date>2010-10-23T19:19:36</dc:date>
        <dc:description />
        <dc:source>https://openclipart.org/detail/92317/warning-by-yves_guillou-92317</dc:source>
        <dc:creator>
          <cc:Agent>
            <dc:title>yves_guillou</dc:title>
          </cc:Agent>
        </dc:creator>
        <dc:subject>
          <rdf:Bag>
            <rdf:li>warning</rdf:li>
          </rdf:Bag>
        </dc:subject>
      </cc:Work>
      <cc:License
         rdf:about="http://creativecommons.org/licenses/publicdomain/">
        <cc:permits
           rdf:resource="http://creativecommons.org/ns#Reproduction" />
        <cc:permits
           rdf:resource="http://creativecommons.org/ns#Distribution" />
        <cc:permits
           rdf:resource="http://creativecommons.org/ns#DerivativeWorks" />
      </cc:License>
    </rdf:RDF>
  </metadata>
</svg>
